<svg width="173" height="66" viewBox="0 0 173 66" fill="none" xmlns="http://www.w3.org/2000/svg">
<path d="M0 2.76714H10.6221V5.36757H10.1865C9.87372 5.36757 9.57214 5.3898 9.28174 5.43425C8.99134 5.45648 8.74561 5.48982 8.54456 5.53427C8.36585 5.57872 8.2765 5.6454 8.2765 5.7343L11.9289 22.7372L11.4933 22.5038L16.1844 2.76714H22.1824L26.7395 22.6038L26.2033 22.8372L29.9562 6.03435C29.9562 5.901 29.8669 5.78987 29.6882 5.70096C29.5318 5.58983 29.3084 5.51204 29.018 5.46759C28.7499 5.40091 28.4484 5.36757 28.1133 5.36757H27.6777V2.76714H34.6809V5.36757H34.4463C33.9325 5.36757 33.5193 5.48982 33.2065 5.7343C32.8938 5.95656 32.6816 6.32329 32.5699 6.83449L28.1133 26.4378H21.8473L17.4242 6.76781L17.8933 6.80115L13.2692 26.4378H6.76863L2.0775 6.3344C1.98815 5.91211 1.7871 5.6454 1.47436 5.53427C1.16161 5.42314 0.748347 5.36757 0.234557 5.36757H0V2.76714ZM43.1579 0.93349V23.904C43.1579 23.9707 43.2472 24.0374 43.4259 24.1041C43.6046 24.1485 43.8168 24.1819 44.0626 24.2041C44.3083 24.2041 44.5317 24.2041 44.7327 24.2041H44.9003V26.4378H35.2499V24.2041H35.3505C35.7749 24.2041 36.1323 24.1485 36.4227 24.0374C36.7131 23.9263 36.9365 23.7373 37.0929 23.4706C37.2493 23.1817 37.3274 22.7927 37.3274 22.3038V4.60078C37.3274 4.35629 37.2604 4.17848 37.1264 4.06735C37.0147 3.934 36.8248 3.82287 36.5568 3.73396C36.2887 3.64506 35.9536 3.55616 35.5515 3.46725L35.2499 3.40058V0.93349H43.1579ZM57.2312 26.4378H47.6144V24.2041H47.715C47.9383 24.2041 48.1729 24.2041 48.4186 24.2041C48.6867 24.1819 48.9101 24.1485 49.0888 24.1041C49.2675 24.0374 49.3568 23.9707 49.3568 23.904V13.4023C49.3568 12.9133 49.2898 12.5132 49.1558 12.2021C49.0441 11.8687 48.8319 11.6242 48.5191 11.4686C48.2287 11.2908 47.8378 11.2019 47.3464 11.2019C46.7879 11.2019 46.2294 11.3464 45.671 11.6353C45.1348 11.9242 44.5875 12.3688 44.0291 12.9689C43.4706 13.5467 42.8898 14.2913 42.2866 15.2026L42.3872 12.7355C42.9233 11.7575 43.5711 10.8907 44.3306 10.135C45.0902 9.37936 45.9279 8.79037 46.8437 8.36808C47.782 7.94578 48.7649 7.73464 49.7925 7.73464C50.9541 7.73464 51.9258 7.94578 52.7077 8.36808C53.5119 8.76815 54.1262 9.36825 54.5506 10.1684C54.975 10.9463 55.1873 11.9242 55.1873 13.1022V22.3038C55.1873 23.0594 55.3548 23.5706 55.6899 23.8373C56.025 24.0818 56.5052 24.2041 57.1307 24.2041H57.2312V26.4378ZM77.7323 17.3029C77.7323 19.281 77.3302 20.9924 76.526 22.4371C75.7442 23.8596 74.6049 24.9598 73.1082 25.7377C71.6115 26.4934 69.8021 26.8712 67.6799 26.8712C65.5801 26.8712 63.7818 26.4934 62.2851 25.7377C60.7884 24.9598 59.638 23.8596 58.8338 22.4371C58.0519 20.9924 57.661 19.281 57.661 17.3029C57.661 15.8138 57.8844 14.4802 58.3312 13.3022C58.7779 12.1243 59.4258 11.1241 60.2746 10.3017C61.1458 9.47938 62.1958 8.85705 63.4244 8.43476C64.6754 7.99024 66.0939 7.76798 67.6799 7.76798C69.2883 7.76798 70.7068 7.99024 71.9354 8.43476C73.1641 8.85705 74.214 9.49049 75.0852 10.3351C75.9564 11.1574 76.6154 12.1576 77.0622 13.3356C77.5089 14.4913 77.7323 15.8138 77.7323 17.3029ZM63.6254 17.3029C63.6254 18.9254 63.7595 20.2367 64.0275 21.2369C64.2956 22.2149 64.7312 22.9372 65.3343 23.4039C65.9375 23.8485 66.7305 24.0707 67.7134 24.0707C68.674 24.0707 69.4447 23.8485 70.0255 23.4039C70.6286 22.9372 71.0642 22.2149 71.3323 21.2369C71.6227 20.2367 71.7679 18.9254 71.7679 17.3029C71.7679 15.7249 71.6227 14.4469 71.3323 13.4689C71.0642 12.4688 70.6286 11.7353 70.0255 11.2686C69.4447 10.8018 68.674 10.5684 67.7134 10.5684C66.7305 10.5684 65.9375 10.8018 65.3343 11.2686C64.7312 11.7353 64.2956 12.4688 64.0275 13.4689C63.7595 14.4469 63.6254 15.7249 63.6254 17.3029ZM90.4143 5.76764C89.3867 5.76764 88.5714 5.53427 87.9682 5.06752C87.3651 4.57855 87.0635 3.85621 87.0635 2.90049C87.0635 1.94477 87.3651 1.22243 87.9682 0.73346C88.5714 0.244488 89.3867 0 90.4143 0C91.4642 0 92.2908 0.244488 92.8939 0.73346C93.497 1.22243 93.7986 1.94477 93.7986 2.90049C93.7986 3.85621 93.497 4.57855 92.8939 5.06752C92.2908 5.53427 91.4642 5.76764 90.4143 5.76764ZM93.5306 8.10137V22.4038C93.5306 23.115 93.7093 23.5929 94.0667 23.8373C94.4241 24.0818 94.9156 24.2041 95.541 24.2041H95.6416V26.4378H85.6562V24.2041H85.7567C86.3822 24.2041 86.8736 24.0818 87.231 23.8373C87.5885 23.5929 87.7672 23.115 87.7672 22.4038V11.8353C87.7672 11.4797 87.6108 11.2463 87.2981 11.1352C87.0077 11.0019 86.5609 10.8685 85.9577 10.7351L85.6562 10.6685V8.10137H93.5306ZM107.38 21.8037C107.38 21.3369 107.257 20.9591 107.012 20.6701C106.788 20.359 106.464 20.1145 106.04 19.9367C105.616 19.7367 105.135 19.5811 104.599 19.4699C104.085 19.3366 103.538 19.2032 102.957 19.0699C102.175 18.8921 101.405 18.692 100.645 18.4698C99.908 18.2253 99.2267 17.9141 98.6012 17.5363C97.998 17.1362 97.5066 16.6139 97.1268 15.9694C96.7694 15.3026 96.5907 14.4691 96.5907 13.4689C96.5907 12.1354 96.9258 11.0463 97.5959 10.2017C98.2661 9.35713 99.2043 8.72369 100.411 8.3014C101.639 7.87911 103.08 7.66796 104.733 7.66796C106.051 7.66796 107.179 7.74575 108.117 7.90133C109.078 8.05691 109.86 8.22361 110.463 8.40142C111.089 8.57922 111.513 8.72369 111.736 8.83482V13.1355H107.481V9.76831C107.816 9.74609 108.073 9.77943 108.251 9.86833C108.453 9.93501 108.587 10.035 108.654 10.1684C108.721 10.3017 108.754 10.4573 108.754 10.6351C108.776 10.8129 108.776 10.9907 108.754 11.1686C108.464 10.9685 108.117 10.8018 107.715 10.6685C107.313 10.5351 106.866 10.4351 106.375 10.3684C105.884 10.3017 105.336 10.2684 104.733 10.2684C103.661 10.2684 102.868 10.4351 102.354 10.7685C101.863 11.0796 101.617 11.5686 101.617 12.2354C101.617 12.7021 101.729 13.08 101.952 13.3689C102.175 13.6356 102.488 13.8579 102.89 14.0357C103.315 14.1913 103.795 14.3357 104.331 14.4691C104.89 14.6025 105.493 14.7469 106.14 14.9025C106.922 15.0803 107.704 15.2915 108.486 15.536C109.268 15.7804 109.972 16.1138 110.597 16.5361C111.245 16.9362 111.759 17.4585 112.138 18.103C112.541 18.7476 112.742 19.5589 112.742 20.5368C112.742 21.937 112.418 23.1039 111.77 24.0374C111.144 24.9709 110.173 25.671 108.855 26.1377C107.537 26.5823 105.884 26.8045 103.895 26.8045C102.644 26.8045 101.505 26.7267 100.478 26.5711C99.4724 26.4156 98.6123 26.2155 97.8975 25.971C97.205 25.7266 96.6689 25.5043 96.2891 25.3043V20.7035H100.612V25.1042C100.187 24.9709 99.8521 24.8042 99.6064 24.6041C99.3607 24.3819 99.1931 24.1707 99.1038 23.9707C99.0368 23.7484 99.0256 23.5706 99.0703 23.4373C99.115 23.3039 99.2155 23.2372 99.3718 23.2372C99.6623 23.3928 100.031 23.5484 100.478 23.704C100.924 23.8596 101.438 23.9929 102.019 24.1041C102.6 24.193 103.248 24.2374 103.962 24.2374C104.767 24.2374 105.414 24.1596 105.906 24.004C106.42 23.8262 106.788 23.5595 107.012 23.2039C107.257 22.8483 107.38 22.3815 107.38 21.8037ZM1.27331 65.3332V63.4329H1.6419C2.20036 63.4329 2.69182 63.3996 3.11625 63.3329C3.54069 63.2662 3.87577 63.144 4.12149 62.9662C4.36722 62.7884 4.49008 62.5439 4.49008 62.2327V44.7631C4.49008 44.4297 4.36722 44.1852 4.12149 44.0296C3.87577 43.8518 3.54069 43.7296 3.11625 43.6629C2.69182 43.5962 2.20036 43.5629 1.6419 43.5629H1.27331V41.6626H9.5498L16.2179 62.2327L15.6818 62.3661L22.5174 41.6626H30.5929V43.5629H30.2243C29.6882 43.5629 29.1967 43.5962 28.7499 43.6629C28.3255 43.7296 27.9904 43.8518 27.7447 44.0296C27.499 44.1852 27.3761 44.4297 27.3761 44.7631V62.2327C27.3761 62.5439 27.499 62.7884 27.7447 62.9662C27.9904 63.144 28.3255 63.2662 28.7499 63.3329C29.1967 63.3996 29.6882 63.4329 30.2243 63.4329H30.5929V65.3332H21.4117V63.4329H21.7132C22.0707 63.4329 22.4392 63.4218 22.819 63.3996C23.2211 63.3773 23.5674 63.344 23.8578 63.2995C24.1482 63.2329 24.2934 63.1662 24.2934 63.0995V42.3294L24.5949 42.096L16.5865 65.3999H14.4755L6.46706 42.1293L6.80214 42.196V63.0995C6.80214 63.1662 6.94734 63.2329 7.23775 63.2995C7.52815 63.344 7.8744 63.3773 8.2765 63.3996C8.67859 63.4218 9.02484 63.4329 9.31525 63.4329H9.44928V65.3332H1.27331ZM36.4336 43.4629C35.7635 43.4629 35.2162 43.2851 34.7917 42.9295C34.3896 42.5738 34.1886 42.0293 34.1886 41.2958C34.1886 40.5846 34.3896 40.0512 34.7917 39.6956C35.2162 39.34 35.7635 39.1621 36.4336 39.1621C37.0591 39.1621 37.5841 39.34 38.0085 39.6956C38.4329 40.0512 38.6452 40.5846 38.6452 41.2958C38.6452 42.0293 38.4329 42.5738 38.0085 42.9295C37.5841 43.2851 37.0591 43.4629 36.4336 43.4629ZM38.176 47.1302V61.866C38.176 62.5994 38.4329 63.0995 38.9467 63.3662C39.4605 63.6107 40.1642 63.733 41.0577 63.733H41.1583V65.3332H32.2451V63.733H32.3791C33.2727 63.733 33.9652 63.6107 34.4566 63.3662C34.9704 63.0995 35.2273 62.5994 35.2273 61.866V50.4974C35.2273 50.0084 35.0039 49.6861 34.5572 49.5306C34.1327 49.3528 33.4737 49.1749 32.5802 48.9971L32.2451 48.9305V47.1302H38.176ZM48.0221 39.8289V61.866C48.0221 62.5994 48.279 63.0995 48.7928 63.3662C49.3066 63.6107 50.0103 63.733 50.9038 63.733H51.0378V65.3332H42.0912V63.733H42.2252C43.1188 63.733 43.8224 63.6107 44.3362 63.3662C44.85 63.0995 45.1069 62.5994 45.1069 61.866V43.1962C45.1069 42.8628 45.0064 42.6183 44.8053 42.4627C44.6043 42.2849 44.3027 42.1404 43.9006 42.0293C43.5209 41.9182 43.0294 41.807 42.4263 41.6959L42.0912 41.6292V39.8289H48.0221ZM54.9513 56.4317C54.9513 57.7875 55.1077 58.9321 55.4204 59.8656C55.7332 60.7991 56.1688 61.5437 56.7272 62.0993C57.308 62.655 57.967 63.0551 58.7042 63.2995C59.4637 63.544 60.2679 63.6663 61.1168 63.6663C62.0774 63.6663 62.9039 63.5107 63.5964 63.1995C64.3112 62.8884 64.9255 62.4772 65.4393 61.966C65.9531 61.4326 66.3887 60.8658 66.7462 60.2657L68.388 61.5659C67.9636 62.3661 67.3828 63.0884 66.6456 63.733C65.9308 64.3553 65.1043 64.8442 64.166 65.1999C63.2278 65.5555 62.189 65.7333 61.0498 65.7333C59.3297 65.7333 57.7772 65.3777 56.3922 64.6664C55.0295 63.933 53.9461 62.8773 53.1419 61.4992C52.3377 60.099 51.9356 58.3987 51.9356 56.3984C51.9356 54.4647 52.293 52.7867 53.0078 51.3642C53.7227 49.9195 54.7167 48.7971 55.9901 47.997C57.2857 47.1968 58.7712 46.7968 60.4466 46.7968C61.787 46.7968 62.9486 47.019 63.9315 47.4635C64.9144 47.8858 65.7186 48.5304 66.3441 49.3972C66.9919 50.2418 67.4833 51.3086 67.8184 52.5977C68.1535 53.8869 68.3322 55.3871 68.3545 57.0985H54.2141V55.1315H66.143L65.2718 55.865C65.2271 54.5759 65.1042 53.4757 64.9032 52.5644C64.7245 51.6531 64.4453 50.9308 64.0655 50.3974C63.6857 49.864 63.2055 49.475 62.6247 49.2305C62.0438 48.986 61.3178 48.8638 60.4466 48.8638C59.6201 48.8638 58.8717 49.0194 58.2016 49.3305C57.5314 49.6195 56.9506 50.0751 56.4592 50.6974C55.9901 51.2975 55.6215 52.0754 55.3534 53.0312C55.0853 53.9869 54.9513 55.1204 54.9513 56.4317ZM81.3881 60.5324C81.3881 59.9768 81.254 59.5211 80.986 59.1655C80.7179 58.7877 80.3493 58.4876 79.8802 58.2654C79.4334 58.0209 78.9196 57.832 78.3388 57.6986C77.758 57.543 77.1549 57.3986 76.5294 57.2652C75.7699 57.0874 75.0215 56.8874 74.2843 56.6651C73.5695 56.4428 72.9217 56.1428 72.3409 55.7649C71.7601 55.3649 71.291 54.8648 70.9335 54.2647C70.5761 53.6424 70.3974 52.8533 70.3974 51.8976C70.3974 50.8752 70.6543 49.9862 71.1681 49.2305C71.7042 48.4526 72.4749 47.8525 73.4802 47.4302C74.4854 46.9857 75.6917 46.7634 77.099 46.7634C78.216 46.7634 79.1877 46.8301 80.0142 46.9635C80.8631 47.0746 81.5668 47.2191 82.1252 47.3969C82.6837 47.5525 83.0858 47.6969 83.3315 47.8303V52.1977H80.3828V48.6637C80.6062 48.6637 80.7961 48.6971 80.9525 48.7638C81.1312 48.8082 81.2652 48.8971 81.3546 49.0305C81.4663 49.1416 81.5556 49.2972 81.6226 49.4972C81.6896 49.675 81.712 49.8973 81.6896 50.164C81.4216 49.8528 81.053 49.5972 80.5839 49.3972C80.1371 49.1972 79.6121 49.0527 79.009 48.9638C78.4282 48.8527 77.7915 48.7971 77.099 48.7971C75.714 48.7971 74.7088 49.0416 74.0833 49.5306C73.4578 50.0195 73.1451 50.6974 73.1451 51.5642C73.1451 52.1199 73.2679 52.5866 73.5137 52.9645C73.7817 53.3423 74.1392 53.6424 74.5859 53.8646C75.055 54.0869 75.5912 54.2869 76.1943 54.4647C76.7975 54.6203 77.4341 54.7648 78.1043 54.8981C78.8414 55.0537 79.5675 55.2537 80.2823 55.4982C81.0195 55.7205 81.6785 56.0205 82.2593 56.3984C82.8401 56.7762 83.3092 57.2763 83.6666 57.8986C84.024 58.521 84.2027 59.2989 84.2027 60.2324C84.2027 61.2992 83.9347 62.2438 83.3985 63.0662C82.8624 63.8885 82.0582 64.5331 80.986 64.9998C79.9137 65.4666 78.5846 65.7 76.9985 65.7C75.8592 65.7 74.8428 65.6222 73.9493 65.4666C73.0557 65.3332 72.2627 65.1554 71.5702 64.9332C70.9 64.6887 70.3192 64.422 69.8278 64.133V59.5656H72.877V64.2997C72.5196 64.1441 72.2404 63.9885 72.0393 63.833C71.8606 63.6552 71.7266 63.4774 71.6372 63.2995C71.5702 63.1217 71.5367 62.9439 71.5367 62.7661C71.5367 62.5661 71.559 62.3661 71.6037 62.166C71.9388 62.4327 72.3632 62.6883 72.877 62.9328C73.4131 63.1551 74.0275 63.344 74.72 63.4996C75.4125 63.6329 76.172 63.6996 76.9985 63.6996C77.9814 63.6996 78.7968 63.5885 79.4446 63.3662C80.0924 63.1217 80.5727 62.7661 80.8854 62.2994C81.2205 61.8326 81.3881 61.2436 81.3881 60.5324ZM114.732 57.0652V61.866C114.397 62.2883 113.928 62.7439 113.325 63.2329C112.744 63.6996 112.029 64.1441 111.18 64.5664C110.354 64.9887 109.427 65.3332 108.399 65.5999C107.372 65.8666 106.266 66 105.082 66C103.272 66 101.631 65.7333 100.156 65.1999C98.6819 64.6442 97.4197 63.833 96.3698 62.7661C95.3422 61.6771 94.5492 60.3657 93.9907 58.8321C93.4323 57.2763 93.153 55.4982 93.153 53.4979C93.153 51.4976 93.4434 49.7306 94.0242 48.197C94.6274 46.6412 95.4539 45.3299 96.5038 44.263C97.5761 43.1962 98.8159 42.3849 100.223 41.8293C101.631 41.2736 103.15 40.9958 104.78 40.9958C106.255 40.9958 107.562 41.2514 108.701 41.7626C109.862 42.2738 110.812 43.0184 111.549 43.9963C112.308 44.952 112.822 46.1189 113.09 47.4969L112.219 46.3634L112.655 41.4292H114.9V49.0305H112.521C112.141 47.8525 111.594 46.819 110.879 45.93C110.164 45.0409 109.293 44.3519 108.265 43.8629C107.26 43.3517 106.098 43.0961 104.78 43.0961C103.529 43.0961 102.39 43.3184 101.363 43.7629C100.357 44.1852 99.4861 44.8298 98.7489 45.6966C98.0117 46.5634 97.4532 47.6525 97.0735 48.9638C96.6937 50.2529 96.5038 51.7643 96.5038 53.4979C96.5038 55.2537 96.6937 56.7873 97.0735 58.0987C97.4532 59.3878 98.0117 60.4657 98.7489 61.3325C99.4861 62.1771 100.38 62.8217 101.43 63.2662C102.502 63.6885 103.719 63.8996 105.082 63.8996C106.445 63.8996 107.562 63.7552 108.433 63.4662C109.326 63.1551 110.03 62.8106 110.544 62.4327C111.08 62.0549 111.471 61.7437 111.717 61.4992V57.0652C111.717 56.5317 111.415 56.1872 110.812 56.0317C110.209 55.8538 109.483 55.7649 108.634 55.7649H107.796V53.8646H117.848V55.7649H117.245C116.463 55.7649 115.849 55.8538 115.402 56.0317C114.956 56.1872 114.732 56.5317 114.732 57.0652ZM124.517 47.1302V60.3991C124.517 61.0658 124.606 61.6326 124.785 62.0993C124.964 62.5439 125.265 62.8773 125.69 63.0995C126.114 63.3218 126.684 63.4329 127.399 63.4329C128.113 63.4329 128.817 63.2884 129.51 62.9995C130.202 62.7106 130.895 62.2772 131.587 61.6993C132.28 61.0992 132.972 60.3546 133.665 59.4656V61.0992C133.017 62.0771 132.324 62.9106 131.587 63.5996C130.85 64.2886 130.057 64.8109 129.208 65.1665C128.381 65.5221 127.488 65.7 126.527 65.7C125.477 65.7 124.573 65.511 123.813 65.1332C123.054 64.7553 122.484 64.1997 122.104 63.4662C121.725 62.7328 121.535 61.8326 121.535 60.7658V50.4974C121.535 50.0084 121.311 49.6639 120.864 49.4639C120.44 49.2639 119.781 49.1083 118.888 48.9971L118.385 48.9305V47.1302H124.517ZM136.01 47.1302V62.0993C136.01 62.4105 136.122 62.655 136.345 62.8328C136.569 63.0106 136.881 63.1551 137.283 63.2662C137.708 63.3551 138.199 63.4329 138.758 63.4996L139.026 63.5329V65.3332H133.665L133.128 61.2992L133.028 61.1659V50.4974C133.028 50.0084 132.805 49.6639 132.358 49.4639C131.933 49.2416 131.274 49.086 130.381 48.9971L129.543 48.9305V47.1302H136.01ZM158.09 56.265C158.09 58.2209 157.71 59.9101 156.951 61.3325C156.214 62.755 155.164 63.8441 153.801 64.5998C152.438 65.3554 150.83 65.7333 148.976 65.7333C147.122 65.7333 145.513 65.3554 144.151 64.5998C142.788 63.8441 141.727 62.755 140.967 61.3325C140.23 59.9101 139.862 58.2209 139.862 56.265C139.862 54.7981 140.074 53.4868 140.498 52.331C140.923 51.1531 141.526 50.1529 142.308 49.3305C143.112 48.5082 144.072 47.8858 145.189 47.4635C146.329 47.019 147.591 46.7968 148.976 46.7968C150.361 46.7968 151.612 47.019 152.729 47.4635C153.846 47.8858 154.806 48.5082 155.61 49.3305C156.415 50.1529 157.029 51.1531 157.453 52.331C157.878 53.4868 158.09 54.7981 158.09 56.265ZM143.011 56.265C143.011 57.932 143.224 59.3211 143.648 60.4324C144.095 61.5215 144.754 62.3327 145.625 62.8661C146.519 63.3996 147.636 63.6663 148.976 63.6663C150.338 63.6663 151.455 63.4107 152.327 62.8995C153.198 62.3661 153.846 61.5437 154.27 60.4324C154.717 59.3211 154.94 57.932 154.94 56.265C154.94 54.6648 154.717 53.3201 154.27 52.231C153.846 51.1197 153.198 50.2862 152.327 49.7306C151.455 49.1527 150.338 48.8638 148.976 48.8638C147.636 48.8638 146.519 49.1527 145.625 49.7306C144.754 50.2862 144.095 51.1197 143.648 52.231C143.224 53.3201 143.011 54.6648 143.011 56.265ZM163.149 52.1643V57.4319H165.896V53.5312C166.745 53.3312 167.583 53.0534 168.409 52.6978C169.258 52.3199 170.029 51.8421 170.721 51.2642C171.414 50.6863 171.961 49.9973 172.363 49.1972C172.788 48.3748 173 47.4191 173 46.33C173 44.9965 172.687 43.8741 172.062 42.9628C171.436 42.0515 170.554 41.3625 169.415 40.8958C168.275 40.4068 166.913 40.1623 165.327 40.1623C164.21 40.1623 163.171 40.2957 162.21 40.5624C161.25 40.8069 160.412 41.118 159.697 41.4959C159.005 41.8515 158.491 42.1738 158.156 42.4627V46.8634H161.105V42.296C160.77 42.3405 160.49 42.4294 160.267 42.5627C160.066 42.6739 159.898 42.8294 159.764 43.0295C159.653 43.2073 159.563 43.4073 159.496 43.6296C159.452 43.8296 159.44 44.0296 159.463 44.2297C159.753 43.8741 160.166 43.5407 160.703 43.2295C161.239 42.9183 161.886 42.6627 162.646 42.4627C163.428 42.2627 164.299 42.1627 165.26 42.1627C166.22 42.1627 167.047 42.3071 167.739 42.5961C168.432 42.885 168.968 43.3406 169.348 43.963C169.727 44.5631 169.917 45.3521 169.917 46.33C169.917 47.3302 169.75 48.1637 169.415 48.8304C169.08 49.4972 168.61 50.0418 168.007 50.4641C167.404 50.8641 166.689 51.1975 165.863 51.4642C165.036 51.7087 164.132 51.9421 163.149 52.1643ZM164.556 65.6666C163.774 65.6666 163.126 65.4332 162.612 64.9665C162.121 64.4997 161.875 63.8996 161.875 63.1662C161.875 62.4327 162.121 61.8437 162.612 61.3992C163.126 60.9325 163.774 60.6991 164.556 60.6991C165.36 60.6991 166.019 60.9325 166.533 61.3992C167.047 61.8437 167.304 62.4327 167.304 63.1662C167.304 63.8996 167.047 64.4997 166.533 64.9665C166.019 65.4332 165.36 65.6666 164.556 65.6666Z" fill="white"/>
</svg>
