<svg width="63" height="25" viewBox="0 0 63 25" fill="none" xmlns="http://www.w3.org/2000/svg">
<path d="M0.216 1.48H4.02V2.416H3.864C3.752 2.416 3.644 2.424 3.54 2.44C3.436 2.448 3.348 2.46 3.276 2.476C3.212 2.492 3.18 2.516 3.18 2.548L4.488 8.668L4.332 8.584L6.012 1.48H8.16L9.792 8.62L9.6 8.704L10.944 2.656C10.944 2.608 10.912 2.568 10.848 2.536C10.792 2.496 10.712 2.468 10.608 2.452C10.512 2.428 10.404 2.416 10.284 2.416H10.128V1.48H12.636V2.416H12.552C12.368 2.416 12.22 2.46 12.108 2.548C11.996 2.628 11.92 2.76 11.88 2.944L10.284 10H8.04L6.456 2.92L6.624 2.932L4.968 10H2.64L0.96 2.764C0.928 2.612 0.856 2.516 0.744 2.476C0.632 2.436 0.484 2.416 0.3 2.416H0.216V1.48ZM15.6718 0.819999V9.088C15.6718 9.112 15.7038 9.136 15.7678 9.16C15.8318 9.176 15.9078 9.188 15.9958 9.196C16.0838 9.196 16.1638 9.196 16.2358 9.196H16.2958V10H12.8398V9.196H12.8758C13.0278 9.196 13.1558 9.176 13.2598 9.136C13.3638 9.096 13.4438 9.028 13.4998 8.932C13.5558 8.828 13.5838 8.688 13.5838 8.512V2.14C13.5838 2.052 13.5598 1.988 13.5118 1.948C13.4718 1.9 13.4038 1.86 13.3078 1.828C13.2118 1.796 13.0918 1.764 12.9478 1.732L12.8398 1.708V0.819999H15.6718ZM20.7118 10H17.2678V9.196H17.3038C17.3838 9.196 17.4678 9.196 17.5558 9.196C17.6518 9.188 17.7318 9.176 17.7958 9.16C17.8598 9.136 17.8918 9.112 17.8918 9.088V5.308C17.8918 5.132 17.8678 4.988 17.8198 4.876C17.7798 4.756 17.7038 4.668 17.5918 4.612C17.4878 4.548 17.3478 4.516 17.1718 4.516C16.9718 4.516 16.7718 4.568 16.5718 4.672C16.3798 4.776 16.1838 4.936 15.9838 5.152C15.7838 5.36 15.5758 5.628 15.3598 5.956L15.3958 5.068C15.5878 4.716 15.8198 4.404 16.0918 4.132C16.3638 3.86 16.6638 3.648 16.9918 3.496C17.3278 3.344 17.6798 3.268 18.0478 3.268C18.4638 3.268 18.8118 3.344 19.0918 3.496C19.3798 3.64 19.5998 3.856 19.7518 4.144C19.9038 4.424 19.9798 4.776 19.9798 5.2V8.512C19.9798 8.784 20.0398 8.968 20.1598 9.064C20.2798 9.152 20.4518 9.196 20.6758 9.196H20.7118V10ZM28.0537 6.712C28.0537 7.424 27.9097 8.04 27.6217 8.56C27.3417 9.072 26.9337 9.468 26.3977 9.748C25.8617 10.02 25.2137 10.156 24.4537 10.156C23.7017 10.156 23.0577 10.02 22.5217 9.748C21.9857 9.468 21.5737 9.072 21.2857 8.56C21.0057 8.04 20.8657 7.424 20.8657 6.712C20.8657 6.176 20.9457 5.696 21.1057 5.272C21.2657 4.848 21.4977 4.488 21.8017 4.192C22.1137 3.896 22.4897 3.672 22.9297 3.52C23.3777 3.36 23.8857 3.28 24.4537 3.28C25.0297 3.28 25.5377 3.36 25.9777 3.52C26.4177 3.672 26.7937 3.9 27.1057 4.204C27.4177 4.5 27.6537 4.86 27.8137 5.284C27.9737 5.7 28.0537 6.176 28.0537 6.712ZM23.0017 6.712C23.0017 7.296 23.0497 7.768 23.1457 8.128C23.2417 8.48 23.3977 8.74 23.6137 8.908C23.8297 9.068 24.1137 9.148 24.4657 9.148C24.8097 9.148 25.0857 9.068 25.2937 8.908C25.5097 8.74 25.6657 8.48 25.7617 8.128C25.8657 7.768 25.9177 7.296 25.9177 6.712C25.9177 6.144 25.8657 5.684 25.7617 5.332C25.6657 4.972 25.5097 4.708 25.2937 4.54C25.0857 4.372 24.8097 4.288 24.4657 4.288C24.1137 4.288 23.8297 4.372 23.6137 4.54C23.3977 4.708 23.2417 4.972 23.1457 5.332C23.0497 5.684 23.0017 6.144 23.0017 6.712ZM32.5954 2.56C32.2274 2.56 31.9354 2.476 31.7194 2.308C31.5034 2.132 31.3954 1.872 31.3954 1.528C31.3954 1.184 31.5034 0.924 31.7194 0.748C31.9354 0.572 32.2274 0.483999 32.5954 0.483999C32.9714 0.483999 33.2674 0.572 33.4834 0.748C33.6994 0.924 33.8074 1.184 33.8074 1.528C33.8074 1.872 33.6994 2.132 33.4834 2.308C33.2674 2.476 32.9714 2.56 32.5954 2.56ZM33.7114 3.4V8.548C33.7114 8.804 33.7754 8.976 33.9034 9.064C34.0314 9.152 34.2074 9.196 34.4314 9.196H34.4674V10H30.8914V9.196H30.9274C31.1514 9.196 31.3274 9.152 31.4554 9.064C31.5834 8.976 31.6474 8.804 31.6474 8.548V4.744C31.6474 4.616 31.5914 4.532 31.4794 4.492C31.3754 4.444 31.2154 4.396 30.9994 4.348L30.8914 4.324V3.4H33.7114ZM38.6713 8.332C38.6713 8.164 38.6273 8.028 38.5393 7.924C38.4593 7.812 38.3433 7.724 38.1913 7.66C38.0393 7.588 37.8673 7.532 37.6753 7.492C37.4913 7.444 37.2953 7.396 37.0873 7.348C36.8073 7.284 36.5313 7.212 36.2593 7.132C35.9953 7.044 35.7513 6.932 35.5273 6.796C35.3113 6.652 35.1353 6.464 34.9993 6.232C34.8713 5.992 34.8073 5.692 34.8073 5.332C34.8073 4.852 34.9273 4.46 35.1673 4.156C35.4073 3.852 35.7433 3.624 36.1753 3.472C36.6153 3.32 37.1313 3.244 37.7233 3.244C38.1953 3.244 38.5993 3.272 38.9353 3.328C39.2793 3.384 39.5593 3.444 39.7753 3.508C39.9993 3.572 40.1513 3.624 40.2313 3.664V5.212H38.7073V4C38.8273 3.992 38.9193 4.004 38.9833 4.036C39.0553 4.06 39.1033 4.096 39.1273 4.144C39.1513 4.192 39.1633 4.248 39.1633 4.312C39.1713 4.376 39.1713 4.44 39.1633 4.504C39.0593 4.432 38.9353 4.372 38.7913 4.324C38.6473 4.276 38.4873 4.24 38.3113 4.216C38.1353 4.192 37.9393 4.18 37.7233 4.18C37.3393 4.18 37.0553 4.24 36.8713 4.36C36.6953 4.472 36.6073 4.648 36.6073 4.888C36.6073 5.056 36.6473 5.192 36.7273 5.296C36.8073 5.392 36.9193 5.472 37.0633 5.536C37.2153 5.592 37.3873 5.644 37.5793 5.692C37.7793 5.74 37.9953 5.792 38.2273 5.848C38.5073 5.912 38.7873 5.988 39.0673 6.076C39.3473 6.164 39.5993 6.284 39.8233 6.436C40.0553 6.58 40.2393 6.768 40.3753 7C40.5193 7.232 40.5913 7.524 40.5913 7.876C40.5913 8.38 40.4753 8.8 40.2433 9.136C40.0193 9.472 39.6713 9.724 39.1993 9.892C38.7273 10.052 38.1353 10.132 37.4233 10.132C36.9753 10.132 36.5673 10.104 36.1993 10.048C35.8393 9.992 35.5313 9.92 35.2753 9.832C35.0273 9.744 34.8353 9.664 34.6993 9.592V7.936H36.2473V9.52C36.0953 9.472 35.9753 9.412 35.8873 9.34C35.7993 9.26 35.7393 9.184 35.7073 9.112C35.6833 9.032 35.6793 8.968 35.6953 8.92C35.7113 8.872 35.7473 8.848 35.8033 8.848C35.9073 8.904 36.0393 8.96 36.1993 9.016C36.3593 9.072 36.5433 9.12 36.7513 9.16C36.9593 9.192 37.1913 9.208 37.4473 9.208C37.7353 9.208 37.9673 9.18 38.1433 9.124C38.3273 9.06 38.4593 8.964 38.5393 8.836C38.6273 8.708 38.6713 8.54 38.6713 8.332ZM0.672 24V23.316H0.804C1.004 23.316 1.18 23.304 1.332 23.28C1.484 23.256 1.604 23.212 1.692 23.148C1.78 23.084 1.824 22.996 1.824 22.884V16.596C1.824 16.476 1.78 16.388 1.692 16.332C1.604 16.268 1.484 16.224 1.332 16.2C1.18 16.176 1.004 16.164 0.804 16.164H0.672V15.48H3.636L6.024 22.884L5.832 22.932L8.28 15.48H11.172V16.164H11.04C10.848 16.164 10.672 16.176 10.512 16.2C10.36 16.224 10.24 16.268 10.152 16.332C10.064 16.388 10.02 16.476 10.02 16.596V22.884C10.02 22.996 10.064 23.084 10.152 23.148C10.24 23.212 10.36 23.256 10.512 23.28C10.672 23.304 10.848 23.316 11.04 23.316H11.172V24H7.884V23.316H7.992C8.12 23.316 8.252 23.312 8.388 23.304C8.532 23.296 8.656 23.284 8.76 23.268C8.864 23.244 8.916 23.22 8.916 23.196V15.72L9.024 15.636L6.156 24.024H5.4L2.532 15.648L2.652 15.672V23.196C2.652 23.22 2.704 23.244 2.808 23.268C2.912 23.284 3.036 23.296 3.18 23.304C3.324 23.312 3.448 23.316 3.552 23.316H3.6V24H0.672ZM13.2637 16.128C13.0237 16.128 12.8277 16.064 12.6757 15.936C12.5317 15.808 12.4597 15.612 12.4597 15.348C12.4597 15.092 12.5317 14.9 12.6757 14.772C12.8277 14.644 13.0237 14.58 13.2637 14.58C13.4877 14.58 13.6757 14.644 13.8277 14.772C13.9797 14.9 14.0557 15.092 14.0557 15.348C14.0557 15.612 13.9797 15.808 13.8277 15.936C13.6757 16.064 13.4877 16.128 13.2637 16.128ZM13.8877 17.448V22.752C13.8877 23.016 13.9797 23.196 14.1637 23.292C14.3477 23.38 14.5997 23.424 14.9197 23.424H14.9557V24H11.7637V23.424H11.8117C12.1317 23.424 12.3797 23.38 12.5557 23.292C12.7397 23.196 12.8317 23.016 12.8317 22.752V18.66C12.8317 18.484 12.7517 18.368 12.5917 18.312C12.4397 18.248 12.2037 18.184 11.8837 18.12L11.7637 18.096V17.448H13.8877ZM17.4138 14.82V22.752C17.4138 23.016 17.5058 23.196 17.6898 23.292C17.8738 23.38 18.1258 23.424 18.4458 23.424H18.4938V24H15.2898V23.424H15.3378C15.6578 23.424 15.9098 23.38 16.0938 23.292C16.2778 23.196 16.3698 23.016 16.3698 22.752V16.032C16.3698 15.912 16.3338 15.824 16.2618 15.768C16.1898 15.704 16.0818 15.652 15.9378 15.612C15.8018 15.572 15.6258 15.532 15.4098 15.492L15.2898 15.468V14.82H17.4138ZM19.8953 20.796C19.8953 21.284 19.9513 21.696 20.0633 22.032C20.1753 22.368 20.3313 22.636 20.5313 22.836C20.7393 23.036 20.9753 23.18 21.2393 23.268C21.5113 23.356 21.7993 23.4 22.1033 23.4C22.4473 23.4 22.7433 23.344 22.9913 23.232C23.2473 23.12 23.4673 22.972 23.6513 22.788C23.8353 22.596 23.9913 22.392 24.1193 22.176L24.7073 22.644C24.5553 22.932 24.3473 23.192 24.0833 23.424C23.8273 23.648 23.5313 23.824 23.1953 23.952C22.8593 24.08 22.4873 24.144 22.0793 24.144C21.4633 24.144 20.9073 24.016 20.4113 23.76C19.9233 23.496 19.5353 23.116 19.2473 22.62C18.9593 22.116 18.8153 21.504 18.8153 20.784C18.8153 20.088 18.9433 19.484 19.1993 18.972C19.4553 18.452 19.8113 18.048 20.2673 17.76C20.7313 17.472 21.2633 17.328 21.8633 17.328C22.3433 17.328 22.7593 17.408 23.1113 17.568C23.4633 17.72 23.7513 17.952 23.9753 18.264C24.2073 18.568 24.3833 18.952 24.5033 19.416C24.6233 19.88 24.6873 20.42 24.6953 21.036H19.6313V20.328H23.9033L23.5913 20.592C23.5753 20.128 23.5313 19.732 23.4593 19.404C23.3953 19.076 23.2953 18.816 23.1593 18.624C23.0233 18.432 22.8513 18.292 22.6433 18.204C22.4353 18.116 22.1753 18.072 21.8633 18.072C21.5673 18.072 21.2993 18.128 21.0593 18.24C20.8193 18.344 20.6113 18.508 20.4353 18.732C20.2673 18.948 20.1353 19.228 20.0393 19.572C19.9433 19.916 19.8953 20.324 19.8953 20.796ZM29.3629 22.272C29.3629 22.072 29.3149 21.908 29.2189 21.78C29.1229 21.644 28.9909 21.536 28.8229 21.456C28.6629 21.368 28.4789 21.3 28.2709 21.252C28.0629 21.196 27.8469 21.144 27.6229 21.096C27.3509 21.032 27.0829 20.96 26.8189 20.88C26.5629 20.8 26.3309 20.692 26.1229 20.556C25.9149 20.412 25.7469 20.232 25.6189 20.016C25.4909 19.792 25.4269 19.508 25.4269 19.164C25.4269 18.796 25.5189 18.476 25.7029 18.204C25.8949 17.924 26.1709 17.708 26.5309 17.556C26.8909 17.396 27.3229 17.316 27.8269 17.316C28.2269 17.316 28.5749 17.34 28.8709 17.388C29.1749 17.428 29.4269 17.48 29.6269 17.544C29.8269 17.6 29.9709 17.652 30.0589 17.7V19.272H29.0029V18C29.0829 18 29.1509 18.012 29.2069 18.036C29.2709 18.052 29.3189 18.084 29.3509 18.132C29.3909 18.172 29.4229 18.228 29.4469 18.3C29.4709 18.364 29.4789 18.444 29.4709 18.54C29.3749 18.428 29.2429 18.336 29.0749 18.264C28.9149 18.192 28.7269 18.14 28.5109 18.108C28.3029 18.068 28.0749 18.048 27.8269 18.048C27.3309 18.048 26.9709 18.136 26.7469 18.312C26.5229 18.488 26.4109 18.732 26.4109 19.044C26.4109 19.244 26.4549 19.412 26.5429 19.548C26.6389 19.684 26.7669 19.792 26.9269 19.872C27.0949 19.952 27.2869 20.024 27.5029 20.088C27.7189 20.144 27.9469 20.196 28.1869 20.244C28.4509 20.3 28.7109 20.372 28.9669 20.46C29.2309 20.54 29.4669 20.648 29.6749 20.784C29.8829 20.92 30.0509 21.1 30.1789 21.324C30.3069 21.548 30.3709 21.828 30.3709 22.164C30.3709 22.548 30.2749 22.888 30.0829 23.184C29.8909 23.48 29.6029 23.712 29.2189 23.88C28.8349 24.048 28.3589 24.132 27.7909 24.132C27.3829 24.132 27.0189 24.104 26.6989 24.048C26.3789 24 26.0949 23.936 25.8469 23.856C25.6069 23.768 25.3989 23.672 25.2229 23.568V21.924H26.3149V23.628C26.1869 23.572 26.0869 23.516 26.0149 23.46C25.9509 23.396 25.9029 23.332 25.8709 23.268C25.8469 23.204 25.8349 23.14 25.8349 23.076C25.8349 23.004 25.8429 22.932 25.8589 22.86C25.9789 22.956 26.1309 23.048 26.3149 23.136C26.5069 23.216 26.7269 23.284 26.9749 23.34C27.2229 23.388 27.4949 23.412 27.7909 23.412C28.1429 23.412 28.4349 23.372 28.6669 23.292C28.8989 23.204 29.0709 23.076 29.1829 22.908C29.3029 22.74 29.3629 22.528 29.3629 22.272ZM41.3042 21.024V22.752C41.1842 22.904 41.0162 23.068 40.8002 23.244C40.5922 23.412 40.3362 23.572 40.0322 23.724C39.7362 23.876 39.4042 24 39.0362 24.096C38.6682 24.192 38.2722 24.24 37.8482 24.24C37.2002 24.24 36.6122 24.144 36.0842 23.952C35.5562 23.752 35.1042 23.46 34.7282 23.076C34.3602 22.684 34.0762 22.212 33.8762 21.66C33.6762 21.1 33.5762 20.46 33.5762 19.74C33.5762 19.02 33.6802 18.384 33.8882 17.832C34.1042 17.272 34.4002 16.8 34.7762 16.416C35.1602 16.032 35.6042 15.74 36.1082 15.54C36.6122 15.34 37.1562 15.24 37.7402 15.24C38.2682 15.24 38.7362 15.332 39.1442 15.516C39.5602 15.7 39.9002 15.968 40.1642 16.32C40.4362 16.664 40.6202 17.084 40.7162 17.58L40.4042 17.172L40.5602 15.396H41.3642V18.132H40.5122C40.3762 17.708 40.1802 17.336 39.9242 17.016C39.6682 16.696 39.3562 16.448 38.9882 16.272C38.6282 16.088 38.2122 15.996 37.7402 15.996C37.2922 15.996 36.8842 16.076 36.5162 16.236C36.1562 16.388 35.8442 16.62 35.5802 16.932C35.3162 17.244 35.1162 17.636 34.9802 18.108C34.8442 18.572 34.7762 19.116 34.7762 19.74C34.7762 20.372 34.8442 20.924 34.9802 21.396C35.1162 21.86 35.3162 22.248 35.5802 22.56C35.8442 22.864 36.1642 23.096 36.5402 23.256C36.9242 23.408 37.3602 23.484 37.8482 23.484C38.3362 23.484 38.7362 23.432 39.0482 23.328C39.3682 23.216 39.6202 23.092 39.8042 22.956C39.9962 22.82 40.1362 22.708 40.2242 22.62V21.024C40.2242 20.832 40.1162 20.708 39.9002 20.652C39.6842 20.588 39.4242 20.556 39.1202 20.556H38.8202V19.872H42.4202V20.556H42.2042C41.9242 20.556 41.7042 20.588 41.5442 20.652C41.3842 20.708 41.3042 20.832 41.3042 21.024ZM44.8083 17.448V22.224C44.8083 22.464 44.8403 22.668 44.9043 22.836C44.9683 22.996 45.0763 23.116 45.2283 23.196C45.3803 23.276 45.5843 23.316 45.8403 23.316C46.0963 23.316 46.3483 23.264 46.5963 23.16C46.8443 23.056 47.0923 22.9 47.3403 22.692C47.5883 22.476 47.8363 22.208 48.0843 21.888V22.476C47.8523 22.828 47.6043 23.128 47.3403 23.376C47.0763 23.624 46.7923 23.812 46.4883 23.94C46.1923 24.068 45.8723 24.132 45.5283 24.132C45.1523 24.132 44.8283 24.064 44.5563 23.928C44.2843 23.792 44.0803 23.592 43.9443 23.328C43.8083 23.064 43.7403 22.74 43.7403 22.356V18.66C43.7403 18.484 43.6603 18.36 43.5003 18.288C43.3483 18.216 43.1123 18.16 42.7923 18.12L42.6123 18.096V17.448H44.8083ZM48.9243 17.448V22.836C48.9243 22.948 48.9643 23.036 49.0443 23.1C49.1243 23.164 49.2363 23.216 49.3803 23.256C49.5323 23.288 49.7083 23.316 49.9083 23.34L50.0043 23.352V24H48.0843L47.8923 22.548L47.8563 22.5V18.66C47.8563 18.484 47.7763 18.36 47.6163 18.288C47.4643 18.208 47.2283 18.152 46.9083 18.12L46.6083 18.096V17.448H48.9243ZM56.8316 20.736C56.8316 21.44 56.6956 22.048 56.4236 22.56C56.1596 23.072 55.7836 23.464 55.2956 23.736C54.8076 24.008 54.2316 24.144 53.5676 24.144C52.9036 24.144 52.3276 24.008 51.8396 23.736C51.3516 23.464 50.9716 23.072 50.6996 22.56C50.4356 22.048 50.3036 21.44 50.3036 20.736C50.3036 20.208 50.3796 19.736 50.5316 19.32C50.6836 18.896 50.8996 18.536 51.1796 18.24C51.4676 17.944 51.8116 17.72 52.2116 17.568C52.6196 17.408 53.0716 17.328 53.5676 17.328C54.0636 17.328 54.5116 17.408 54.9116 17.568C55.3116 17.72 55.6556 17.944 55.9436 18.24C56.2316 18.536 56.4516 18.896 56.6036 19.32C56.7556 19.736 56.8316 20.208 56.8316 20.736ZM51.4316 20.736C51.4316 21.336 51.5076 21.836 51.6596 22.236C51.8196 22.628 52.0556 22.92 52.3676 23.112C52.6876 23.304 53.0876 23.4 53.5676 23.4C54.0556 23.4 54.4556 23.308 54.7676 23.124C55.0796 22.932 55.3116 22.636 55.4636 22.236C55.6236 21.836 55.7036 21.336 55.7036 20.736C55.7036 20.16 55.6236 19.676 55.4636 19.284C55.3116 18.884 55.0796 18.584 54.7676 18.384C54.4556 18.176 54.0556 18.072 53.5676 18.072C53.0876 18.072 52.6876 18.176 52.3676 18.384C52.0556 18.584 51.8196 18.884 51.6596 19.284C51.5076 19.676 51.4316 20.16 51.4316 20.736ZM58.6432 19.26V21.156H59.6272V19.752C59.9312 19.68 60.2312 19.58 60.5272 19.452C60.8312 19.316 61.1072 19.144 61.3552 18.936C61.6032 18.728 61.7992 18.48 61.9432 18.192C62.0952 17.896 62.1712 17.552 62.1712 17.16C62.1712 16.68 62.0592 16.276 61.8352 15.948C61.6112 15.62 61.2952 15.372 60.8872 15.204C60.4792 15.028 59.9912 14.94 59.4232 14.94C59.0232 14.94 58.6512 14.988 58.3072 15.084C57.9632 15.172 57.6632 15.284 57.4072 15.42C57.1592 15.548 56.9752 15.664 56.8552 15.768V17.352H57.9112V15.708C57.7912 15.724 57.6912 15.756 57.6112 15.804C57.5392 15.844 57.4792 15.9 57.4312 15.972C57.3912 16.036 57.3592 16.108 57.3352 16.188C57.3192 16.26 57.3152 16.332 57.3232 16.404C57.4272 16.276 57.5752 16.156 57.7672 16.044C57.9592 15.932 58.1912 15.84 58.4632 15.768C58.7432 15.696 59.0552 15.66 59.3992 15.66C59.7432 15.66 60.0392 15.712 60.2872 15.816C60.5352 15.92 60.7272 16.084 60.8632 16.308C60.9992 16.524 61.0672 16.808 61.0672 17.16C61.0672 17.52 61.0072 17.82 60.8872 18.06C60.7672 18.3 60.5992 18.496 60.3832 18.648C60.1672 18.792 59.9112 18.912 59.6152 19.008C59.3192 19.096 58.9952 19.18 58.6432 19.26ZM59.1472 24.12C58.8672 24.12 58.6352 24.036 58.4512 23.868C58.2752 23.7 58.1872 23.484 58.1872 23.22C58.1872 22.956 58.2752 22.744 58.4512 22.584C58.6352 22.416 58.8672 22.332 59.1472 22.332C59.4352 22.332 59.6712 22.416 59.8552 22.584C60.0392 22.744 60.1312 22.956 60.1312 23.22C60.1312 23.484 60.0392 23.7 59.8552 23.868C59.6712 24.036 59.4352 24.12 59.1472 24.12Z" fill="#111111"/>
</svg>